<svg width="43" height="45" viewBox="0 0 43 45" fill="none" xmlns="http://www.w3.org/2000/svg">
<mask id="path-1-inside-1_21_22107" fill="white">
<path d="M23.9434 44.7349C27.7573 44.1442 31.3552 42.5824 34.3912 40.1997C37.4272 37.8169 39.7992 34.6933 41.2793 31.129C42.7595 27.5647 43.2979 23.6796 42.8428 19.8471C42.3878 16.0147 40.9546 12.3637 38.681 9.24508C36.4074 6.12648 33.3698 3.64514 29.8603 2.03954C26.3507 0.433949 22.4872 -0.241915 18.641 0.0769148C14.7948 0.395745 11.0953 1.69855 7.89801 3.86011C4.70074 6.02166 2.11322 8.9693 0.38416 12.4197L4.57446 14.5195C5.94333 11.7879 7.99184 9.45428 10.5231 7.743C13.0543 6.03172 15.9832 5.0003 19.0282 4.74789C22.0732 4.49547 25.1319 5.03055 27.9104 6.30168C30.6889 7.57281 33.0937 9.53727 34.8936 12.0062C36.6936 14.4752 37.8283 17.3656 38.1885 20.3998C38.5488 23.4339 38.1225 26.5097 36.9507 29.3315C35.7789 32.1533 33.901 34.6262 31.4975 36.5126C29.0939 38.3991 26.2455 39.6355 23.2261 40.1031L23.9434 44.7349Z"/>
</mask>
<path d="M23.9434 44.7349C27.7573 44.1442 31.3552 42.5824 34.3912 40.1997C37.4272 37.8169 39.7992 34.6933 41.2793 31.129C42.7595 27.5647 43.2979 23.6796 42.8428 19.8471C42.3878 16.0147 40.9546 12.3637 38.681 9.24508C36.4074 6.12648 33.3698 3.64514 29.8603 2.03954C26.3507 0.433949 22.4872 -0.241915 18.641 0.0769148C14.7948 0.395745 11.0953 1.69855 7.89801 3.86011C4.70074 6.02166 2.11322 8.9693 0.38416 12.4197L4.57446 14.5195C5.94333 11.7879 7.99184 9.45428 10.5231 7.743C13.0543 6.03172 15.9832 5.0003 19.0282 4.74789C22.0732 4.49547 25.1319 5.03055 27.9104 6.30168C30.6889 7.57281 33.0937 9.53727 34.8936 12.0062C36.6936 14.4752 37.8283 17.3656 38.1885 20.3998C38.5488 23.4339 38.1225 26.5097 36.9507 29.3315C35.7789 32.1533 33.901 34.6262 31.4975 36.5126C29.0939 38.3991 26.2455 39.6355 23.2261 40.1031L23.9434 44.7349Z" stroke="#0094FF" stroke-width="10" mask="url(#path-1-inside-1_21_22107)"/>
</svg>
